<?xml version="1.0" standalone="no"?>
<!DOCTYPE svg PUBLIC "-//W3C//DTD SVG 20010904//EN"
 "http://www.w3.org/TR/2001/REC-SVG-20010904/DTD/svg10.dtd">
<svg version="1.0" xmlns="http://www.w3.org/2000/svg"
 width="300.000000pt" height="300.000000pt" viewBox="0 0 300.000000 300.000000"
 preserveAspectRatio="xMidYMid meet">
<metadata>
Created by potrace 1.10, written by Peter Selinger 2001-2011
</metadata>
<g transform="translate(0.000000,300.000000) scale(0.100000,-0.100000)"
fill="#ed9929" stroke="none">
<path d="M1690 2899 c-71 -36 -122 -47 -114 -25 4 11 1 16 -10 16 -19 0 -19
-1 -6 -35 12 -32 23 -115 15 -115 -3 0 -32 14 -65 30 -33 17 -64 30 -70 30
-21 0 -9 -17 25 -33 27 -13 36 -25 45 -58 11 -38 10 -62 -6 -140 -5 -26 -4
-26 35 -19 23 4 41 3 41 -1 0 -5 6 -9 14 -9 14 0 31 -29 22 -37 -3 -3 -40 7
-83 21 -90 30 -119 33 -89 11 11 -8 27 -15 35 -15 15 0 41 -60 41 -95 0 -8 5
-15 11 -15 6 0 8 -9 3 -22 -4 -13 -7 -31 -6 -40 0 -10 -6 -18 -14 -18 -17 0
-17 5 -4 30 11 20 4 70 -9 70 -4 0 -16 -26 -27 -57 -30 -92 -32 -86 20 -81
l46 6 0 -82 c-1 -44 -7 -112 -14 -151 -8 -38 -12 -73 -9 -77 2 -5 14 -8 26 -8
12 0 32 -3 44 -6 19 -5 20 -9 11 -30 -10 -20 -18 -24 -58 -24 l-47 0 -21 88
c-12 48 -28 92 -34 97 -7 6 -14 21 -14 35 -1 14 -9 43 -17 65 -14 38 -18 41
-86 59 -67 18 -71 20 -71 47 0 16 -4 29 -9 29 -5 0 -11 8 -13 18 -3 10 -11 19
-19 20 -65 7 -64 6 -62 37 0 17 3 39 5 50 1 11 -2 19 -8 18 -7 -1 -10 6 -7 16
7 29 60 33 81 6 18 -22 47 -38 71 -39 8 -1 15 -16 17 -39 l3 -37 -39 0 c-50 0
-52 -17 -4 -26 19 -3 49 -18 66 -32 l30 -25 -7 49 c-12 87 -39 129 -98 154
l-52 22 62 17 c56 16 142 71 111 71 -8 0 -19 -5 -25 -11 -7 -7 -13 -7 -17 0
-4 5 6 17 21 25 15 8 22 15 15 16 -7 0 -22 -5 -33 -10 -11 -6 -19 -7 -19 -1 0
5 18 16 40 25 22 9 40 20 40 26 0 5 -20 1 -45 -10 -46 -20 -61 -15 -24 8 41
26 10 23 -42 -3 -38 -20 -62 -26 -85 -22 l-33 6 5 -47 c3 -26 7 -55 9 -64 2
-10 2 -18 0 -18 -2 0 -34 14 -71 30 -37 17 -72 29 -78 27 -6 -3 1 -10 16 -17
15 -7 32 -25 38 -39 6 -14 17 -37 25 -50 9 -17 11 -30 4 -42 -5 -10 -9 -27 -9
-39 0 -11 -7 -34 -15 -51 -13 -24 -20 -28 -42 -23 -19 5 -24 3 -21 -7 2 -7 17
-16 33 -20 34 -10 85 -57 79 -73 -3 -7 7 -25 21 -42 27 -31 28 -39 19 -96 -6
-35 -8 -36 -50 -40 -24 -2 -44 0 -44 4 0 5 -4 8 -8 8 -5 0 -3 -39 4 -87 7 -49
10 -99 7 -112 -4 -16 -2 -22 5 -17 7 4 14 -3 18 -19 6 -24 24 -35 24 -14 0 5
4 8 9 5 4 -3 19 57 31 134 13 77 24 139 26 137 14 -13 -4 -160 -32 -255 -5
-17 -3 -21 9 -17 17 7 47 105 47 153 0 18 4 32 9 32 12 0 4 51 -10 65 -5 5 -9
25 -9 44 0 18 -12 58 -26 87 -23 48 -26 82 -4 69 4 -3 10 2 14 10 4 12 10 10
29 -9 14 -14 44 -30 68 -37 24 -7 50 -17 57 -22 16 -13 42 -72 44 -103 1 -12
6 -20 10 -18 4 3 8 3 8 1 0 -16 43 -174 50 -182 5 -6 6 -29 3 -53 l-6 -42 -52
6 c-46 6 -56 3 -76 -15 l-24 -22 33 -30 c17 -16 32 -27 32 -23 0 3 6 2 13 -3
27 -21 47 -23 47 -4 0 14 -14 25 -45 37 -57 21 -61 45 -7 37 50 -7 106 -36
110 -56 3 -12 -1 -15 -13 -11 -10 4 -21 1 -26 -7 -14 -22 -10 -31 10 -24 13 4
25 -2 37 -18 11 -13 57 -49 104 -81 87 -60 98 -70 82 -80 -5 -3 -29 10 -53 29
-46 36 -69 34 -69 -9 0 -11 -4 -27 -9 -35 -7 -12 -14 -10 -36 8 -38 29 -76 27
-107 -6 -34 -37 -51 -71 -42 -85 4 -7 3 -8 -4 -4 -15 9 -15 49 0 64 6 6 9 15
5 19 -4 3 -13 -2 -21 -12 -10 -14 -20 -16 -42 -11 -16 4 -52 11 -81 16 -71 11
-75 15 -66 58 16 84 3 131 -56 196 -18 19 -22 30 -13 33 6 3 12 11 12 19 0 8
-6 14 -12 14 -7 0 -22 3 -33 6 -18 4 -21 1 -19 -23 2 -41 3 -43 14 -43 12 0
50 -37 50 -49 0 -5 6 -14 14 -20 24 -20 24 -81 1 -153 -12 -38 -20 -68 -18
-68 2 0 18 7 34 16 29 14 31 14 35 -4 4 -14 12 -17 35 -14 16 2 49 -2 74 -9
39 -12 46 -18 51 -47 15 -77 -22 -160 -85 -191 -74 -37 -235 -60 -307 -43 -36
8 -145 1 -181 -12 -15 -6 8 -109 36 -165 l20 -38 73 25 c64 21 84 23 158 18
114 -9 123 -10 137 -19 7 -5 77 -28 155 -53 l142 -45 20 22 21 22 -22 -6 c-22
-5 -99 10 -118 23 -5 4 -31 13 -57 20 -46 12 -57 30 -19 30 23 0 55 35 48 52
-4 8 -6 9 -6 1 -1 -18 -129 -57 -145 -44 -18 15 -97 26 -176 25 -48 -1 -57 0
-35 6 l30 8 -34 1 c-19 0 -42 8 -51 16 -15 13 -17 13 -17 0 0 -8 6 -15 14 -15
7 0 13 -4 13 -10 0 -14 -8 -13 -40 7 -24 14 -31 14 -44 4 -9 -8 -16 -19 -15
-25 0 -7 2 -6 6 2 2 6 12 12 21 12 15 -1 14 -3 -2 -15 -43 -33 -72 -8 -82 69
-6 42 -5 44 22 49 16 3 99 6 184 7 202 1 239 3 233 13 -3 5 3 6 14 3 48 -15
709 242 685 266 -6 6 -24 2 -48 -10 -43 -21 -103 -42 -137 -47 -12 -2 -75 -24
-141 -50 -65 -25 -124 -44 -132 -41 -8 3 -11 0 -8 -9 5 -13 -39 -40 -81 -50
-11 -2 -35 -8 -52 -14 -27 -8 -33 -7 -33 5 0 8 4 14 9 14 5 0 22 25 36 55 24
48 29 53 46 42 14 -9 27 -8 54 2 41 14 58 8 30 -12 -30 -23 4 -27 50 -6 31 13
35 18 18 18 -15 1 -25 9 -29 26 -3 14 -8 25 -10 25 -2 0 -27 -9 -55 -20 -28
-12 -53 -19 -55 -17 -5 4 46 159 56 170 11 13 56 -9 94 -47 19 -20 37 -32 39
-28 13 20 17 93 8 111 -7 13 -8 22 -1 26 5 3 10 1 10 -5 0 -6 14 -29 32 -49
27 -33 35 -37 50 -27 10 6 18 16 18 23 0 14 16 17 24 5 6 -11 -6 -28 -24 -34
-11 -3 -8 -10 13 -30 l28 -26 -68 -41 c-70 -42 -66 -54 9 -24 39 15 79 47 78
62 -1 3 -7 17 -15 31 -19 32 -19 54 -1 47 8 -3 20 1 27 9 10 12 16 11 45 -11
36 -28 50 -26 104 14 19 14 55 35 80 47 52 24 105 73 115 104 5 15 0 28 -19
45 -36 33 -33 37 16 19 37 -13 43 -13 58 1 22 20 40 1 36 -38 -2 -15 -1 -25 2
-22 3 2 11 0 19 -6 10 -9 21 -5 47 14 18 15 36 24 40 22 3 -3 4 -2 2 1 -3 3
11 27 31 52 36 47 54 85 55 112 0 35 -10 166 -13 179 -4 15 44 33 88 33 13 0
20 5 16 10 -4 7 7 8 33 4 80 -14 94 -18 94 -27 0 -5 -16 -59 -35 -119 -38
-117 -91 -220 -127 -250 -53 -43 -133 -68 -225 -70 -7 0 -10 -7 -6 -16 5 -13
17 -14 72 -8 126 13 202 70 262 199 40 85 116 322 106 331 -3 4 -19 -1 -36 -9
-17 -8 -39 -14 -48 -12 -10 2 -29 4 -42 4 -23 1 -24 2 -6 21 10 11 24 20 31
20 8 0 16 11 20 24 4 17 11 23 21 19 11 -4 14 -2 11 8 -3 8 1 22 9 31 24 28 6
41 -29 21 -49 -28 -78 -58 -78 -81 0 -20 -35 -49 -53 -44 -5 1 -11 -7 -14 -18
-5 -17 -13 -20 -64 -20 -33 0 -59 -2 -59 -5 0 -3 9 -23 20 -45 11 -22 20 -48
20 -58 0 -10 -9 -27 -20 -37 -20 -18 -20 -17 -20 16 0 36 -53 110 -115 162
-52 42 -196 133 -300 187 -95 50 -125 73 -125 93 0 5 7 7 15 3 9 -3 15 0 15 9
0 7 -10 15 -22 17 -19 2 -29 20 -59 108 -33 95 -40 108 -80 139 -51 39 -58 51
-31 51 31 0 101 28 132 52 35 28 36 33 10 35 -11 1 -19 -2 -17 -7 3 -12 -17
-13 -21 -1 -2 5 9 17 25 25 l28 15 -35 -4 -35 -5 38 16 c20 9 37 21 37 26 0 6
-8 7 -17 3 -10 -4 -29 -10 -43 -12 -25 -5 -25 -5 5 21 38 32 25 31 -45 -5z
m23 -69 c7 -27 -3 -36 -56 -49 -56 -13 -63 -11 -70 26 l-5 27 19 -25 19 -24 0
23 c0 16 9 27 32 36 37 16 54 12 61 -14z m-115 -127 c4 -5 17 -15 30 -22 13
-7 32 -27 42 -44 21 -34 27 -72 9 -62 -5 4 -19 -1 -29 -10 -17 -15 -21 -15
-47 -2 -15 9 -35 18 -45 21 -13 4 -15 16 -12 68 2 35 4 64 4 65 1 7 43 -5 48
-14z m-290 -85 c3 -15 -25 -34 -80 -51 -34 -12 -29 49 6 63 32 14 70 7 74 -12z
m411 -110 c22 -24 38 -45 36 -47 -3 -2 -24 2 -49 9 -42 12 -55 27 -56 68 0 24
30 11 69 -30z m-64 -43 c18 -14 49 -29 69 -32 23 -4 36 -11 36 -21 0 -8 6 -23
14 -31 35 -39 102 -294 85 -322 -4 -7 -1 -23 8 -35 20 -31 11 -41 -31 -38 -45
4 -82 -26 -67 -54 12 -23 77 -56 91 -47 5 3 21 -6 36 -20 14 -14 37 -33 51
-42 l25 -17 -23 -9 c-23 -9 -21 -11 25 -33 27 -12 53 -30 58 -39 5 -8 14 -13
19 -9 11 7 38 -24 39 -43 0 -7 -28 -33 -62 -58 l-63 -46 -3 33 c-6 73 -24 168
-33 168 -8 0 -11 -9 -11 -30 0 -3 2 -28 6 -57 l7 -52 -30 4 c-17 2 -35 6 -41
10 -11 7 -50 -12 -65 -32 -12 -17 -65 -8 -65 11 0 22 -59 132 -86 161 -16 16
-28 33 -26 37 1 5 -4 8 -11 8 -7 0 -20 13 -30 29 -16 28 -16 29 4 34 11 3 36
3 56 0 28 -5 35 -3 31 8 -2 8 -16 15 -31 17 -24 3 -25 5 -15 28 l11 25 26 -28
c25 -27 61 -40 61 -22 0 5 -9 9 -20 9 -11 0 -19 3 -19 8 3 20 -2 32 -16 32 -8
0 -15 5 -15 11 0 6 -7 9 -15 5 -8 -3 -15 -2 -15 3 0 5 -16 12 -36 16 -34 6
-36 8 -30 38 3 18 9 78 12 135 6 92 5 104 -12 123 -19 21 -21 64 -3 85 5 6 4
25 -1 45 -14 48 -14 47 28 52 20 2 38 4 40 5 2 1 18 -9 37 -23z m-458 -135 c0
-35 3 -34 -62 -16 -54 14 -54 13 15 39 35 13 47 7 47 -23z m765 -98 c35 -38
84 -99 107 -135 30 -46 47 -64 58 -60 11 4 14 0 12 -18 -3 -34 11 -79 25 -79
6 0 31 11 55 25 50 29 61 31 61 10 0 -9 7 -27 16 -40 15 -23 14 -26 -27 -75
-23 -27 -46 -50 -50 -50 -4 0 -11 9 -14 21 -12 37 -151 212 -245 310 -50 52
-88 87 -83 78 20 -38 145 -209 154 -209 5 0 9 -8 9 -19 0 -16 45 -108 59 -121
10 -9 61 -120 61 -133 0 -8 -3 -9 -8 -1 -4 6 -54 37 -112 68 -58 32 -112 64
-120 72 -12 12 -9 14 22 14 40 0 60 15 31 23 -10 3 -44 5 -75 5 -58 -1 -118
17 -118 34 0 11 93 6 124 -7 17 -7 18 -4 11 36 -4 24 -15 49 -24 56 -13 11
-14 14 -2 22 12 8 12 20 -4 82 -9 41 -18 78 -20 84 -1 5 -5 17 -8 25 -3 8 -10
29 -15 45 -6 17 -14 39 -18 50 -12 29 57 -27 138 -113z m158 -68 c66 -44 150
-119 150 -135 0 -10 -82 -48 -92 -42 -5 2 -8 12 -8 21 0 9 -16 35 -36 56 -20
21 -47 57 -62 80 -14 23 -35 52 -46 65 l-21 24 25 -13 c14 -7 54 -32 90 -56z
m-956 -156 c-3 -12 -12 -55 -19 -97 -7 -42 -14 -69 -15 -61 -1 8 -2 18 -2 22
1 3 -5 38 -12 77 -7 38 -11 73 -8 76 3 3 18 5 34 5 26 0 28 -3 22 -22z m1192
-181 c-26 -53 -120 -156 -132 -144 -4 4 -2 13 5 20 6 8 9 21 6 29 -4 9 23 53
67 112 71 95 73 97 76 66 2 -19 -7 -52 -22 -83z m-823 39 c15 -22 15 -28 -1
-67 l-17 -43 -7 39 c-16 90 -6 118 25 71z m637 -37 c6 -10 7 -19 2 -19 -5 0
-14 12 -20 26 -14 29 2 24 18 -7z m-498 -139 c12 -24 24 -60 28 -80 5 -33 8
-35 38 -32 30 3 32 1 32 -28 l0 -31 -82 64 c-46 35 -102 76 -125 91 l-41 28
15 36 c8 20 20 48 25 62 l10 25 39 -45 c22 -25 49 -65 61 -90z m528 96 c0 -8
-4 -18 -10 -21 -5 -3 -10 3 -10 14 0 12 5 21 10 21 6 0 10 -6 10 -14z m-302
-182 c35 -24 29 -61 -14 -79 -20 -8 -38 -15 -40 -15 -6 0 -34 71 -34 85 0 13
18 21 50 24 9 0 26 -6 38 -15z"/>
<path d="M1055 2125 c-38 -19 -94 -53 -123 -75 -29 -22 -57 -40 -63 -40 -5 0
-58 23 -116 50 -58 28 -108 50 -110 50 -2 0 10 -27 27 -60 16 -33 41 -84 54
-114 l24 -55 -38 -51 c-74 -99 -170 -320 -170 -390 0 -44 28 -4 50 71 76 264
263 485 503 596 31 15 57 33 57 40 0 20 -19 16 -95 -22z m-267 -115 c28 -13
52 -27 52 -30 0 -3 -16 -21 -35 -40 l-34 -33 -26 54 c-25 54 -32 84 -17 77 4
-2 31 -14 60 -28z"/>
<path d="M993 1880 c-112 -90 -211 -232 -257 -372 -14 -42 -26 -85 -26 -95 0
-14 -38 -32 -195 -87 -108 -38 -193 -71 -190 -75 3 -3 90 -35 192 -71 l186
-67 23 -82 c28 -97 61 -164 119 -246 109 -153 282 -271 462 -314 60 -15 49 6
139 -258 27 -79 51 -143 54 -143 3 0 21 48 42 108 20 59 50 146 68 193 l31 87
64 16 c217 54 414 215 519 423 14 29 37 89 50 134 l23 82 186 67 c102 36 189
68 192 72 3 3 -81 36 -188 74 l-194 68 -12 58 c-12 59 -20 68 -39 45 -7 -8 -6
-30 4 -72 23 -100 20 -117 -29 -151 -24 -17 -75 -73 -114 -126 -164 -218 -330
-312 -526 -295 -77 7 -176 34 -322 88 -83 31 -100 34 -205 34 -96 0 -125 -4
-178 -23 -35 -13 -66 -22 -68 -19 -2 2 -16 37 -31 78 -35 98 -44 298 -19 412
21 92 81 219 141 297 44 57 151 160 167 160 4 0 8 11 8 25 0 14 -3 25 -7 25
-5 -1 -36 -23 -70 -50z m-286 -628 l0 -109 -106 40 c-58 21 -123 44 -144 49
-32 9 -36 13 -25 24 10 11 247 102 269 103 4 1 6 -48 6 -107z m1747 54 c66
-24 121 -47 123 -52 2 -5 -57 -30 -130 -55 -72 -26 -140 -50 -151 -54 -16 -7
-18 -4 -12 21 14 69 15 88 5 100 -6 8 -7 23 -3 36 4 13 9 28 9 33 1 6 3 14 3
19 1 4 10 5 20 1 9 -4 71 -26 136 -49z m-188 -73 c-3 -21 -6 -46 -6 -55 0 -10
-8 -18 -17 -18 -10 0 -42 -11 -72 -25 -30 -14 -56 -24 -58 -22 -12 13 126 157
151 157 5 0 6 -17 2 -37z m-10 -110 c-3 -10 -8 -30 -11 -45 -6 -23 -17 -30
-78 -48 -40 -12 -90 -31 -112 -43 -22 -12 -47 -21 -55 -22 -8 0 -49 -34 -90
-75 -103 -103 -127 -114 -254 -107 -101 5 -172 24 -286 75 -25 11 -74 26 -110
32 -86 15 -186 -5 -293 -58 l-79 -39 -34 51 c-19 28 -34 54 -34 57 0 9 96 38
164 49 84 13 165 -1 340 -60 180 -60 286 -77 377 -61 73 12 185 65 243 113 22
18 47 33 55 35 16 2 52 38 68 67 7 14 167 95 186 96 5 0 6 -8 3 -17z m-26
-107 c0 -2 -6 -19 -14 -38 -13 -31 -20 -35 -77 -47 -53 -11 -118 -32 -204 -66
-44 -18 27 43 88 76 77 41 207 88 207 75z m-57 -127 c-14 -25 -32 -36 -88 -53
-141 -45 -314 -150 -461 -282 l-72 -64 -68 1 c-38 0 -87 3 -109 7 l-40 7 70
56 c134 107 212 152 284 163 25 4 90 31 146 61 83 44 311 133 348 135 5 0 1
-14 -10 -31z m-792 -62 c109 -46 184 -67 230 -67 21 0 41 -5 45 -11 9 -15 -85
-3 -221 28 -198 46 -266 34 -375 -64 l-51 -46 -50 49 c-27 26 -49 51 -49 55 0
7 121 63 170 77 102 31 189 25 301 -21z m730 -35 c-29 -41 -39 -47 -104 -61
-99 -22 -209 -84 -285 -162 -37 -38 -75 -69 -84 -69 -17 0 -42 -33 -33 -42 3
-3 -11 -45 -30 -94 -19 -49 -35 -92 -35 -96 0 -3 -9 -28 -21 -55 l-21 -48 -19
50 c-30 76 -79 222 -79 234 0 7 29 11 76 11 87 0 92 2 160 68 109 105 257 202
403 263 87 36 98 36 72 1z m-759 -24 l71 -11 -69 -17 c-86 -21 -143 -50 -200
-102 -47 -44 -53 -44 -108 -3 -23 18 -15 29 54 80 86 63 132 73 252 53z m72
-62 c-27 -13 -88 -53 -133 -90 -81 -66 -84 -67 -115 -55 -17 7 -35 16 -39 20
-9 7 74 74 123 100 38 20 141 48 180 48 l35 1 -51 -24z m101 -24 c-33 -21 -96
-68 -140 -103 -77 -62 -82 -65 -115 -56 l-35 9 54 48 c93 82 201 139 266 139
28 1 26 -2 -30 -37z m510 19 c-78 -69 -272 -182 -314 -181 -25 1 84 97 143
127 86 44 199 80 171 54z"/>
<path d="M2393 1603 c-9 -3 -10 -10 -4 -21 4 -9 16 -47 26 -84 10 -37 24 -69
31 -72 19 -7 18 16 -5 98 -20 72 -29 86 -48 79z"/>
<path d="M2204 1578 c9 -16 4 -24 -34 -57 l-44 -38 -1 -138 c-2 -138 -2 -138
18 -114 16 20 19 38 17 129 -2 58 -2 110 -1 116 0 6 19 20 41 33 40 22 65 54
56 70 -3 5 -19 11 -35 13 -26 4 -28 2 -17 -14z"/>
<path d="M1813 1344 c-163 -82 -266 -122 -437 -166 -67 -18 -124 -36 -127 -40
-3 -5 -14 -6 -25 -2 -14 4 -15 3 -5 -4 11 -8 11 -10 0 -15 -11 -4 -9 -10 6
-23 19 -16 18 -16 -20 -11 -31 5 -36 4 -22 -4 16 -9 72 -6 118 7 9 3 19 13 22
24 6 24 69 64 78 49 4 -7 13 -8 25 -1 11 5 50 17 87 27 37 10 70 22 73 27 3 4
12 8 20 8 42 0 378 181 357 193 -5 2 -72 -29 -150 -69z m-506 -229 c-9 -7 -14
-15 -11 -18 3 -3 -9 -5 -28 -4 -41 2 -44 22 -4 22 16 1 31 6 34 13 2 7 9 9 14
6 7 -5 5 -11 -5 -19z"/>
<path d="M2100 1351 c0 -12 -4 -19 -10 -16 -6 4 -10 -12 -10 -42 -1 -92 -14
-121 -87 -195 -97 -99 -157 -142 -188 -134 -14 4 -41 0 -61 -9 -20 -8 -54 -15
-75 -15 -21 0 -40 -4 -44 -9 -3 -5 -21 -7 -39 -4 -27 4 -39 0 -57 -18 -23 -23
-23 -24 -4 -28 11 -2 26 6 37 19 13 17 18 18 18 7 0 -27 20 -30 45 -7 12 12
24 17 26 11 3 -6 24 -4 59 6 30 8 73 16 95 17 51 1 113 46 217 154 l75 78 6
99 c4 54 5 101 2 103 -3 3 -5 -5 -5 -17z"/>
<path d="M1530 1153 c-8 -4 -28 -20 -45 -37 -16 -16 -25 -27 -18 -23 6 4 14 3
18 -3 17 -28 95 7 95 43 0 8 -3 9 -8 1 -13 -20 -70 -45 -77 -34 -4 6 7 15 23
21 17 6 33 17 36 25 6 15 1 16 -24 7z"/>
<path d="M1403 1096 c-13 -7 -20 -15 -17 -19 9 -9 65 14 58 24 -7 11 -13 10
-41 -5z"/>
<path d="M540 1072 c0 -76 85 -275 165 -388 l46 -63 -56 -111 c-30 -60 -51
-110 -45 -110 5 0 56 23 113 52 l104 51 64 -45 c88 -63 192 -113 295 -143 102
-30 106 -30 102 -9 -2 11 -27 22 -75 35 -192 48 -385 178 -510 343 -57 76
-136 239 -158 328 -10 37 -23 69 -31 72 -9 3 -14 -1 -14 -12z m270 -509 c17
-14 30 -29 30 -33 0 -9 -113 -61 -119 -55 -8 8 43 115 55 115 2 0 18 -12 34
-27z"/>
<path d="M2443 1082 c-6 -4 -18 -35 -27 -69 -87 -335 -355 -595 -703 -683 -26
-7 -43 -17 -43 -25 0 -20 3 -19 104 10 103 30 207 80 295 143 l64 45 104 -51
c57 -29 108 -52 113 -52 6 0 -15 49 -45 110 l-55 109 57 83 c65 97 106 184
134 286 21 76 22 106 2 94z m-180 -552 c14 -33 21 -60 16 -60 -16 0 -119 51
-119 58 0 11 54 61 66 61 6 1 22 -26 37 -59z"/>
<path d="M1300 1071 c-62 -17 -92 -34 -78 -42 11 -7 11 -9 -1 -9 -8 0 -12 -2
-9 -5 8 -8 107 32 125 50 16 17 7 18 -37 6z"/>
<path d="M1421 1066 c-29 -10 -32 -14 -17 -19 11 -5 29 -1 42 8 41 27 31 31
-25 11z"/>
</g>
</svg>
